<svg xmlns="http://www.w3.org/2000/svg" viewBox="0 0 30 30"><path d="M20.237 21.25h1v6h-1z"/><path d="M22.999 14.75h-4.597L15 18.152l-3.402-3.402H7.001A2.504 2.504 0 0 0 4.5 17.251v9.999h1v-9.999c0-.828.673-1.501 1.501-1.501h4.183L15 19.566l3.816-3.816h4.183c.828 0 1.501.673 1.501 1.501v9.999h1v-9.999a2.504 2.504 0 0 0-2.501-2.501"/><path d="M8.762 21.25h1v6h-1zM15.001 13.35c2.922 0 5.299-2.377 5.299-5.3s-2.377-5.3-5.299-5.3S9.7 5.127 9.7 8.05s2.378 5.3 5.301 5.3m0-9.6c2.371 0 4.299 1.929 4.299 4.3s-1.929 4.3-4.299 4.3-4.301-1.929-4.301-4.3 1.929-4.3 4.301-4.3"/></svg>
